<mxfile host="app.diagrams.net" modified="2023-11-26T23:18:00.473Z" agent="Mozilla/5.0 (Windows NT 10.0; Win64; x64) AppleWebKit/537.36 (KHTML, like Gecko) Chrome/118.0.0.0 Safari/537.36 OPR/104.0.0.0" etag="w0Ho5Ump0TzfmIGIbuTR" version="22.1.4" type="github" pages="6">
  <diagram name="Actividad 1" id="oIF-mdmTdKCk8hg7Z8nK">
    <mxGraphModel dx="1639" dy="892" grid="1" gridSize="10" guides="1" tooltips="1" connect="1" arrows="1" fold="1" page="1" pageScale="1" pageWidth="980" pageHeight="690" math="0" shadow="0">
      <root>
        <mxCell id="0" />
        <mxCell id="1" parent="0" />
        <mxCell id="yV_BncOuSyax81pWV5jK-26" style="shape=connector;rounded=0;orthogonalLoop=1;jettySize=auto;html=1;exitX=0;exitY=1;exitDx=0;exitDy=0;entryX=1;entryY=0.5;entryDx=0;entryDy=0;labelBackgroundColor=default;strokeColor=default;align=center;verticalAlign=middle;fontFamily=Helvetica;fontSize=11;fontColor=default;endArrow=none;endFill=0;" edge="1" parent="1" source="yV_BncOuSyax81pWV5jK-9" target="yV_BncOuSyax81pWV5jK-23">
          <mxGeometry relative="1" as="geometry" />
        </mxCell>
        <mxCell id="yV_BncOuSyax81pWV5jK-28" style="edgeStyle=none;shape=connector;rounded=0;orthogonalLoop=1;jettySize=auto;html=1;entryX=0.5;entryY=1;entryDx=0;entryDy=0;labelBackgroundColor=default;strokeColor=default;align=center;verticalAlign=middle;fontFamily=Helvetica;fontSize=11;fontColor=default;endArrow=none;endFill=0;" edge="1" parent="1" source="yV_BncOuSyax81pWV5jK-9" target="yV_BncOuSyax81pWV5jK-21">
          <mxGeometry relative="1" as="geometry" />
        </mxCell>
        <mxCell id="yV_BncOuSyax81pWV5jK-9" value="Médicos" style="whiteSpace=wrap;html=1;align=center;" vertex="1" parent="1">
          <mxGeometry x="220" y="200" width="100" height="40" as="geometry" />
        </mxCell>
        <mxCell id="yV_BncOuSyax81pWV5jK-15" style="edgeStyle=orthogonalEdgeStyle;rounded=0;orthogonalLoop=1;jettySize=auto;html=1;entryX=0.5;entryY=0;entryDx=0;entryDy=0;endArrow=none;endFill=0;" edge="1" parent="1" source="yV_BncOuSyax81pWV5jK-10" target="yV_BncOuSyax81pWV5jK-14">
          <mxGeometry relative="1" as="geometry" />
        </mxCell>
        <mxCell id="yV_BncOuSyax81pWV5jK-17" style="edgeStyle=orthogonalEdgeStyle;shape=connector;rounded=0;orthogonalLoop=1;jettySize=auto;html=1;exitX=0;exitY=0.5;exitDx=0;exitDy=0;entryX=1;entryY=0.5;entryDx=0;entryDy=0;labelBackgroundColor=default;strokeColor=default;align=center;verticalAlign=middle;fontFamily=Helvetica;fontSize=11;fontColor=default;endArrow=none;endFill=0;" edge="1" parent="1" source="yV_BncOuSyax81pWV5jK-10" target="yV_BncOuSyax81pWV5jK-13">
          <mxGeometry relative="1" as="geometry" />
        </mxCell>
        <mxCell id="yV_BncOuSyax81pWV5jK-10" value="Pacientes" style="whiteSpace=wrap;html=1;align=center;" vertex="1" parent="1">
          <mxGeometry x="640" y="200" width="100" height="40" as="geometry" />
        </mxCell>
        <mxCell id="yV_BncOuSyax81pWV5jK-49" style="edgeStyle=none;shape=connector;rounded=0;orthogonalLoop=1;jettySize=auto;html=1;exitX=0.75;exitY=1;exitDx=0;exitDy=0;entryX=0.5;entryY=0;entryDx=0;entryDy=0;labelBackgroundColor=default;strokeColor=default;align=center;verticalAlign=middle;fontFamily=Helvetica;fontSize=11;fontColor=default;endArrow=none;endFill=0;" edge="1" parent="1" source="yV_BncOuSyax81pWV5jK-11" target="yV_BncOuSyax81pWV5jK-42">
          <mxGeometry relative="1" as="geometry" />
        </mxCell>
        <mxCell id="yV_BncOuSyax81pWV5jK-50" style="edgeStyle=none;shape=connector;rounded=0;orthogonalLoop=1;jettySize=auto;html=1;exitX=0.25;exitY=1;exitDx=0;exitDy=0;entryX=0.5;entryY=0;entryDx=0;entryDy=0;labelBackgroundColor=default;strokeColor=default;align=center;verticalAlign=middle;fontFamily=Helvetica;fontSize=11;fontColor=default;endArrow=none;endFill=0;" edge="1" parent="1" source="yV_BncOuSyax81pWV5jK-11" target="yV_BncOuSyax81pWV5jK-44">
          <mxGeometry relative="1" as="geometry" />
        </mxCell>
        <mxCell id="yV_BncOuSyax81pWV5jK-51" style="edgeStyle=none;shape=connector;rounded=0;orthogonalLoop=1;jettySize=auto;html=1;exitX=0;exitY=0.5;exitDx=0;exitDy=0;entryX=1;entryY=0.5;entryDx=0;entryDy=0;labelBackgroundColor=default;strokeColor=default;align=center;verticalAlign=middle;fontFamily=Helvetica;fontSize=11;fontColor=default;endArrow=none;endFill=0;" edge="1" parent="1" source="yV_BncOuSyax81pWV5jK-11" target="yV_BncOuSyax81pWV5jK-43">
          <mxGeometry relative="1" as="geometry" />
        </mxCell>
        <mxCell id="yV_BncOuSyax81pWV5jK-11" value="Enfermedades" style="whiteSpace=wrap;html=1;align=center;" vertex="1" parent="1">
          <mxGeometry x="640" y="420" width="100" height="40" as="geometry" />
        </mxCell>
        <mxCell id="yV_BncOuSyax81pWV5jK-12" value="&lt;div style=&quot;font-size: 11px;&quot;&gt;&lt;b&gt;&lt;font style=&quot;font-size: 11px;&quot; face=&quot;Verdana&quot;&gt;&amp;nbsp; &amp;nbsp; 1. En el hospital de Santo Socorro visitan médicos (que se caracterizan por un DNI, y tienen nombre y apellidos), que atienden pacientes&amp;nbsp;&lt;/font&gt;&lt;/b&gt;&lt;/div&gt;&lt;div style=&quot;font-size: 11px;&quot;&gt;&lt;b&gt;&lt;font style=&quot;font-size: 11px;&quot; face=&quot;Verdana&quot;&gt;(que tienen un&amp;nbsp;&lt;span style=&quot;background-color: initial;&quot;&gt;código,&amp;nbsp;&lt;/span&gt;&lt;span style=&quot;background-color: initial;&quot;&gt;nombre&amp;nbsp;&lt;/span&gt;&lt;span style=&quot;background-color: initial;&quot;&gt;y apellidos),&amp;nbsp;&lt;/span&gt;&lt;span style=&quot;background-color: initial;&quot;&gt;los cuales tienen enfermedades&amp;nbsp;&lt;/span&gt;&lt;span style=&quot;background-color: initial;&quot;&gt;(que codificamos con un número y que tienen un nombre técnico&lt;/span&gt;&lt;/font&gt;&lt;/b&gt;&lt;/div&gt;&lt;div style=&quot;font-size: 11px;&quot;&gt;&lt;b&gt;&lt;font style=&quot;font-size: 11px;&quot; face=&quot;Verdana&quot;&gt;&lt;span style=&quot;background-color: initial;&quot;&gt;y&amp;nbsp;&lt;/span&gt;&lt;span style=&quot;background-color: initial;&quot;&gt;un&amp;nbsp;&lt;/span&gt;&lt;span style=&quot;background-color: initial;&quot;&gt;nombre común).&amp;nbsp;&lt;/span&gt;&lt;span style=&quot;background-color: initial;&quot;&gt;Los médicos atienden a uno o varios pacientes, mientras que un paciente puede ser atendido por 1 o varios médicos.&lt;/span&gt;&lt;/font&gt;&lt;/b&gt;&lt;/div&gt;&lt;div style=&quot;font-size: 11px;&quot;&gt;&lt;b&gt;&lt;font style=&quot;font-size: 11px;&quot; face=&quot;Verdana&quot;&gt;Los pacientes pueden o no tener enfermedades, y una enfermedad puede afectar a uno o varios pacientes.&lt;/font&gt;&lt;/b&gt;&lt;/div&gt;" style="text;html=1;align=center;verticalAlign=middle;resizable=0;points=[];autosize=1;strokeColor=default;fillColor=default;" vertex="1" parent="1">
          <mxGeometry x="40" y="20" width="900" height="70" as="geometry" />
        </mxCell>
        <mxCell id="yV_BncOuSyax81pWV5jK-18" style="edgeStyle=orthogonalEdgeStyle;shape=connector;rounded=0;orthogonalLoop=1;jettySize=auto;html=1;exitX=0;exitY=0.5;exitDx=0;exitDy=0;entryX=1;entryY=0.5;entryDx=0;entryDy=0;labelBackgroundColor=default;strokeColor=default;align=center;verticalAlign=middle;fontFamily=Helvetica;fontSize=11;fontColor=default;endArrow=none;endFill=0;" edge="1" parent="1" source="yV_BncOuSyax81pWV5jK-13" target="yV_BncOuSyax81pWV5jK-9">
          <mxGeometry relative="1" as="geometry" />
        </mxCell>
        <mxCell id="yV_BncOuSyax81pWV5jK-13" value="tienen" style="shape=rhombus;perimeter=rhombusPerimeter;whiteSpace=wrap;html=1;align=center;" vertex="1" parent="1">
          <mxGeometry x="420" y="190" width="120" height="60" as="geometry" />
        </mxCell>
        <mxCell id="yV_BncOuSyax81pWV5jK-16" style="edgeStyle=orthogonalEdgeStyle;shape=connector;rounded=0;orthogonalLoop=1;jettySize=auto;html=1;exitX=0.5;exitY=1;exitDx=0;exitDy=0;entryX=0.5;entryY=0;entryDx=0;entryDy=0;labelBackgroundColor=default;strokeColor=default;align=center;verticalAlign=middle;fontFamily=Helvetica;fontSize=11;fontColor=default;endArrow=none;endFill=0;" edge="1" parent="1" source="yV_BncOuSyax81pWV5jK-14" target="yV_BncOuSyax81pWV5jK-11">
          <mxGeometry relative="1" as="geometry" />
        </mxCell>
        <mxCell id="yV_BncOuSyax81pWV5jK-14" value="tienen" style="shape=rhombus;perimeter=rhombusPerimeter;whiteSpace=wrap;html=1;align=center;" vertex="1" parent="1">
          <mxGeometry x="630" y="300" width="120" height="60" as="geometry" />
        </mxCell>
        <mxCell id="yV_BncOuSyax81pWV5jK-21" value="Nombre" style="ellipse;whiteSpace=wrap;html=1;align=center;fontFamily=Helvetica;fontSize=11;fontColor=default;" vertex="1" parent="1">
          <mxGeometry x="220" y="140" width="100" height="40" as="geometry" />
        </mxCell>
        <mxCell id="yV_BncOuSyax81pWV5jK-22" value="Apellidos" style="ellipse;whiteSpace=wrap;html=1;align=center;fontFamily=Helvetica;fontSize=11;fontColor=default;" vertex="1" parent="1">
          <mxGeometry x="100" y="160" width="100" height="40" as="geometry" />
        </mxCell>
        <mxCell id="yV_BncOuSyax81pWV5jK-23" value="DNI" style="ellipse;whiteSpace=wrap;html=1;align=center;fontFamily=Helvetica;fontSize=11;fontColor=default;" vertex="1" parent="1">
          <mxGeometry x="100" y="240" width="100" height="40" as="geometry" />
        </mxCell>
        <mxCell id="yV_BncOuSyax81pWV5jK-25" style="edgeStyle=orthogonalEdgeStyle;shape=connector;rounded=0;orthogonalLoop=1;jettySize=auto;html=1;exitX=0.5;exitY=0;exitDx=0;exitDy=0;labelBackgroundColor=default;strokeColor=default;align=center;verticalAlign=middle;fontFamily=Helvetica;fontSize=11;fontColor=default;endArrow=none;endFill=0;" edge="1" parent="1" source="yV_BncOuSyax81pWV5jK-24" target="yV_BncOuSyax81pWV5jK-9">
          <mxGeometry relative="1" as="geometry" />
        </mxCell>
        <mxCell id="yV_BncOuSyax81pWV5jK-24" value="id-Medicos" style="ellipse;whiteSpace=wrap;html=1;align=center;fontStyle=4;fontFamily=Helvetica;fontSize=11;fontColor=default;" vertex="1" parent="1">
          <mxGeometry x="220" y="280" width="100" height="40" as="geometry" />
        </mxCell>
        <mxCell id="yV_BncOuSyax81pWV5jK-27" style="edgeStyle=none;shape=connector;rounded=0;orthogonalLoop=1;jettySize=auto;html=1;exitX=0;exitY=0;exitDx=0;exitDy=0;entryX=0.941;entryY=0.749;entryDx=0;entryDy=0;entryPerimeter=0;labelBackgroundColor=default;strokeColor=default;align=center;verticalAlign=middle;fontFamily=Helvetica;fontSize=11;fontColor=default;endArrow=none;endFill=0;" edge="1" parent="1" source="yV_BncOuSyax81pWV5jK-9" target="yV_BncOuSyax81pWV5jK-22">
          <mxGeometry relative="1" as="geometry" />
        </mxCell>
        <mxCell id="yV_BncOuSyax81pWV5jK-29" value="(1,n)" style="text;html=1;align=center;verticalAlign=middle;resizable=0;points=[];autosize=1;strokeColor=none;fillColor=none;fontSize=11;fontFamily=Helvetica;fontColor=default;" vertex="1" parent="1">
          <mxGeometry x="599" y="193" width="50" height="30" as="geometry" />
        </mxCell>
        <mxCell id="yV_BncOuSyax81pWV5jK-30" value="(1,n)" style="text;html=1;align=center;verticalAlign=middle;resizable=0;points=[];autosize=1;strokeColor=none;fillColor=none;fontSize=11;fontFamily=Helvetica;fontColor=default;" vertex="1" parent="1">
          <mxGeometry x="309" y="192" width="50" height="30" as="geometry" />
        </mxCell>
        <mxCell id="yV_BncOuSyax81pWV5jK-39" style="edgeStyle=none;shape=connector;rounded=0;orthogonalLoop=1;jettySize=auto;html=1;entryX=0.5;entryY=0;entryDx=0;entryDy=0;labelBackgroundColor=default;strokeColor=default;align=center;verticalAlign=middle;fontFamily=Helvetica;fontSize=11;fontColor=default;endArrow=none;endFill=0;" edge="1" parent="1" source="yV_BncOuSyax81pWV5jK-31" target="yV_BncOuSyax81pWV5jK-10">
          <mxGeometry relative="1" as="geometry" />
        </mxCell>
        <mxCell id="yV_BncOuSyax81pWV5jK-31" value="Nombre" style="ellipse;whiteSpace=wrap;html=1;align=center;fontFamily=Helvetica;fontSize=11;fontColor=default;" vertex="1" parent="1">
          <mxGeometry x="640" y="120" width="100" height="40" as="geometry" />
        </mxCell>
        <mxCell id="yV_BncOuSyax81pWV5jK-38" style="edgeStyle=none;shape=connector;rounded=0;orthogonalLoop=1;jettySize=auto;html=1;exitX=0;exitY=1;exitDx=0;exitDy=0;entryX=1;entryY=0;entryDx=0;entryDy=0;labelBackgroundColor=default;strokeColor=default;align=center;verticalAlign=middle;fontFamily=Helvetica;fontSize=11;fontColor=default;endArrow=none;endFill=0;" edge="1" parent="1" source="yV_BncOuSyax81pWV5jK-33" target="yV_BncOuSyax81pWV5jK-10">
          <mxGeometry relative="1" as="geometry" />
        </mxCell>
        <mxCell id="yV_BncOuSyax81pWV5jK-33" value="Apellidos" style="ellipse;whiteSpace=wrap;html=1;align=center;fontFamily=Helvetica;fontSize=11;fontColor=default;" vertex="1" parent="1">
          <mxGeometry x="750" y="140" width="100" height="40" as="geometry" />
        </mxCell>
        <mxCell id="yV_BncOuSyax81pWV5jK-37" style="edgeStyle=none;shape=connector;rounded=0;orthogonalLoop=1;jettySize=auto;html=1;exitX=0;exitY=0.5;exitDx=0;exitDy=0;entryX=1;entryY=0.5;entryDx=0;entryDy=0;labelBackgroundColor=default;strokeColor=default;align=center;verticalAlign=middle;fontFamily=Helvetica;fontSize=11;fontColor=default;endArrow=none;endFill=0;" edge="1" parent="1" source="yV_BncOuSyax81pWV5jK-34" target="yV_BncOuSyax81pWV5jK-10">
          <mxGeometry relative="1" as="geometry" />
        </mxCell>
        <mxCell id="yV_BncOuSyax81pWV5jK-34" value="Código" style="ellipse;whiteSpace=wrap;html=1;align=center;fontFamily=Helvetica;fontSize=11;fontColor=default;" vertex="1" parent="1">
          <mxGeometry x="780" y="200" width="100" height="40" as="geometry" />
        </mxCell>
        <mxCell id="yV_BncOuSyax81pWV5jK-36" style="edgeStyle=none;shape=connector;rounded=0;orthogonalLoop=1;jettySize=auto;html=1;exitX=0;exitY=0;exitDx=0;exitDy=0;entryX=1;entryY=1;entryDx=0;entryDy=0;labelBackgroundColor=default;strokeColor=default;align=center;verticalAlign=middle;fontFamily=Helvetica;fontSize=11;fontColor=default;endArrow=none;endFill=0;" edge="1" parent="1" source="yV_BncOuSyax81pWV5jK-35" target="yV_BncOuSyax81pWV5jK-10">
          <mxGeometry relative="1" as="geometry" />
        </mxCell>
        <mxCell id="yV_BncOuSyax81pWV5jK-35" value="id-Pacientes" style="ellipse;whiteSpace=wrap;html=1;align=center;fontStyle=4;fontFamily=Helvetica;fontSize=11;fontColor=default;" vertex="1" parent="1">
          <mxGeometry x="750" y="250" width="100" height="40" as="geometry" />
        </mxCell>
        <mxCell id="yV_BncOuSyax81pWV5jK-41" style="edgeStyle=none;shape=connector;rounded=0;orthogonalLoop=1;jettySize=auto;html=1;exitX=0;exitY=0.5;exitDx=0;exitDy=0;entryX=1;entryY=0.5;entryDx=0;entryDy=0;labelBackgroundColor=default;strokeColor=default;align=center;verticalAlign=middle;fontFamily=Helvetica;fontSize=11;fontColor=default;endArrow=none;endFill=0;" edge="1" parent="1" source="yV_BncOuSyax81pWV5jK-40" target="yV_BncOuSyax81pWV5jK-11">
          <mxGeometry relative="1" as="geometry" />
        </mxCell>
        <mxCell id="yV_BncOuSyax81pWV5jK-40" value="Código" style="ellipse;whiteSpace=wrap;html=1;align=center;fontFamily=Helvetica;fontSize=11;fontColor=default;" vertex="1" parent="1">
          <mxGeometry x="760" y="420" width="100" height="40" as="geometry" />
        </mxCell>
        <mxCell id="yV_BncOuSyax81pWV5jK-42" value="Nombre técnico" style="ellipse;whiteSpace=wrap;html=1;align=center;fontFamily=Helvetica;fontSize=11;fontColor=default;" vertex="1" parent="1">
          <mxGeometry x="700" y="490" width="100" height="40" as="geometry" />
        </mxCell>
        <mxCell id="yV_BncOuSyax81pWV5jK-43" value="Nombre común" style="ellipse;whiteSpace=wrap;html=1;align=center;fontFamily=Helvetica;fontSize=11;fontColor=default;" vertex="1" parent="1">
          <mxGeometry x="510" y="420" width="100" height="40" as="geometry" />
        </mxCell>
        <mxCell id="yV_BncOuSyax81pWV5jK-44" value="id-Enfermedades" style="ellipse;whiteSpace=wrap;html=1;align=center;fontStyle=4;fontFamily=Helvetica;fontSize=11;fontColor=default;" vertex="1" parent="1">
          <mxGeometry x="590" y="490" width="100" height="40" as="geometry" />
        </mxCell>
        <mxCell id="yV_BncOuSyax81pWV5jK-45" value="N:M" style="text;html=1;align=center;verticalAlign=middle;resizable=0;points=[];autosize=1;strokeColor=none;fillColor=none;fontSize=11;fontFamily=Helvetica;fontColor=default;" vertex="1" parent="1">
          <mxGeometry x="460" y="158" width="40" height="30" as="geometry" />
        </mxCell>
        <mxCell id="yV_BncOuSyax81pWV5jK-46" value="(1,n)" style="text;html=1;align=center;verticalAlign=middle;resizable=0;points=[];autosize=1;strokeColor=none;fillColor=none;fontSize=11;fontFamily=Helvetica;fontColor=default;" vertex="1" parent="1">
          <mxGeometry x="679" y="389" width="50" height="30" as="geometry" />
        </mxCell>
        <mxCell id="yV_BncOuSyax81pWV5jK-47" value="(0,1)" style="text;html=1;align=center;verticalAlign=middle;resizable=0;points=[];autosize=1;strokeColor=none;fillColor=none;fontSize=11;fontFamily=Helvetica;fontColor=default;" vertex="1" parent="1">
          <mxGeometry x="678" y="238" width="50" height="30" as="geometry" />
        </mxCell>
        <mxCell id="yV_BncOuSyax81pWV5jK-48" value="1:N" style="text;html=1;align=center;verticalAlign=middle;resizable=0;points=[];autosize=1;strokeColor=none;fillColor=none;fontSize=11;fontFamily=Helvetica;fontColor=default;" vertex="1" parent="1">
          <mxGeometry x="590" y="315" width="40" height="30" as="geometry" />
        </mxCell>
        <mxCell id="tCmt-2LWtR0RqjXnSr2T-2" value="&lt;b&gt;&lt;font style=&quot;font-size: 14px;&quot; face=&quot;Courier New&quot;&gt;Marcos Zahonero&lt;/font&gt;&lt;/b&gt;" style="text;html=1;align=center;verticalAlign=middle;resizable=0;points=[];autosize=1;strokeColor=default;fillColor=default;fontSize=11;fontFamily=Helvetica;fontColor=default;" vertex="1" parent="1">
          <mxGeometry x="415" y="660" width="150" height="30" as="geometry" />
        </mxCell>
      </root>
    </mxGraphModel>
  </diagram>
  <diagram id="rxtNAIiARi-w2j7opf0Z" name="Actividad 2">
    <mxGraphModel dx="1393" dy="758" grid="1" gridSize="10" guides="1" tooltips="1" connect="1" arrows="1" fold="1" page="1" pageScale="1" pageWidth="980" pageHeight="690" math="0" shadow="0">
      <root>
        <mxCell id="0" />
        <mxCell id="1" parent="0" />
        <mxCell id="YhutP6GiGatE_QYas9tM-1" value="&lt;div&gt;&amp;nbsp; &amp;nbsp; 2. Diseña un pequeño diagrama para el siguiente fragmento del sistema: una cadena de pizzerías tiene locales que sólo pueden ser de tipo restaurante, donde los clientes pueden&amp;nbsp;&lt;/div&gt;&lt;div&gt;degustar las&amp;nbsp;&lt;span style=&quot;background-color: initial;&quot;&gt;pizzas in situ, o de tipo “para llevar”.&amp;nbsp;&lt;/span&gt;&lt;span style=&quot;background-color: initial;&quot;&gt;Un mismo local puede ser, a la vez, restaurante y admitir pedidos para llevar. Un local puede tener una o varias pizzerias, mientras&amp;nbsp;&lt;/span&gt;&lt;/div&gt;&lt;div&gt;&lt;span style=&quot;background-color: initial;&quot;&gt;que una&amp;nbsp;&lt;/span&gt;&lt;span style=&quot;background-color: initial;&quot;&gt;pizzeria&amp;nbsp;&lt;/span&gt;&lt;span style=&quot;background-color: initial;&quot;&gt;solo puede&amp;nbsp;&lt;/span&gt;&lt;span style=&quot;background-color: initial;&quot;&gt;pertenecer a un local.&lt;/span&gt;&lt;span style=&quot;background-color: initial;&quot;&gt;Indica el tipo de relación o jerarquía que hayas utilizado.&lt;/span&gt;&lt;/div&gt;" style="text;html=1;align=center;verticalAlign=middle;resizable=0;points=[];autosize=1;strokeColor=default;fillColor=default;fontSize=11;fontFamily=Helvetica;fontColor=default;" vertex="1" parent="1">
          <mxGeometry x="25" y="20" width="910" height="50" as="geometry" />
        </mxCell>
        <mxCell id="0gmloOZs-fSd3dOgQ3sd-10" style="edgeStyle=none;shape=connector;rounded=0;orthogonalLoop=1;jettySize=auto;html=1;exitX=0.5;exitY=1;exitDx=0;exitDy=0;entryX=0.5;entryY=0;entryDx=0;entryDy=0;labelBackgroundColor=default;strokeColor=default;align=center;verticalAlign=middle;fontFamily=Helvetica;fontSize=11;fontColor=default;endArrow=none;endFill=0;" edge="1" parent="1" source="NTO8GKyaMLIdz0zo7kCo-1" target="0gmloOZs-fSd3dOgQ3sd-9">
          <mxGeometry relative="1" as="geometry" />
        </mxCell>
        <mxCell id="NTO8GKyaMLIdz0zo7kCo-1" value="Local" style="whiteSpace=wrap;html=1;align=center;" vertex="1" parent="1">
          <mxGeometry x="430" y="340" width="100" height="40" as="geometry" />
        </mxCell>
        <mxCell id="0gmloOZs-fSd3dOgQ3sd-6" value="" style="edgeStyle=none;shape=connector;rounded=0;orthogonalLoop=1;jettySize=auto;html=1;labelBackgroundColor=default;strokeColor=default;align=center;verticalAlign=middle;fontFamily=Helvetica;fontSize=11;fontColor=default;endArrow=none;endFill=0;" edge="1" parent="1" source="0gmloOZs-fSd3dOgQ3sd-2" target="0gmloOZs-fSd3dOgQ3sd-5">
          <mxGeometry relative="1" as="geometry" />
        </mxCell>
        <mxCell id="0gmloOZs-fSd3dOgQ3sd-2" value="Cadena de pizzerias" style="whiteSpace=wrap;html=1;align=center;" vertex="1" parent="1">
          <mxGeometry x="430" y="150" width="100" height="40" as="geometry" />
        </mxCell>
        <mxCell id="0gmloOZs-fSd3dOgQ3sd-3" value="Pizzas in situ" style="whiteSpace=wrap;html=1;align=center;" vertex="1" parent="1">
          <mxGeometry x="370" y="510" width="100" height="40" as="geometry" />
        </mxCell>
        <mxCell id="0gmloOZs-fSd3dOgQ3sd-4" value="Para llevar" style="whiteSpace=wrap;html=1;align=center;" vertex="1" parent="1">
          <mxGeometry x="490" y="510" width="100" height="40" as="geometry" />
        </mxCell>
        <mxCell id="0gmloOZs-fSd3dOgQ3sd-7" value="" style="edgeStyle=none;shape=connector;rounded=0;orthogonalLoop=1;jettySize=auto;html=1;labelBackgroundColor=default;strokeColor=default;align=center;verticalAlign=middle;fontFamily=Helvetica;fontSize=11;fontColor=default;endArrow=none;endFill=0;" edge="1" parent="1" source="0gmloOZs-fSd3dOgQ3sd-5" target="NTO8GKyaMLIdz0zo7kCo-1">
          <mxGeometry relative="1" as="geometry" />
        </mxCell>
        <mxCell id="0gmloOZs-fSd3dOgQ3sd-5" value="tiene" style="shape=rhombus;perimeter=rhombusPerimeter;whiteSpace=wrap;html=1;align=center;" vertex="1" parent="1">
          <mxGeometry x="420" y="230" width="120" height="60" as="geometry" />
        </mxCell>
        <mxCell id="0gmloOZs-fSd3dOgQ3sd-11" style="edgeStyle=none;shape=connector;rounded=0;orthogonalLoop=1;jettySize=auto;html=1;exitX=0.5;exitY=0;exitDx=0;exitDy=0;labelBackgroundColor=default;strokeColor=default;align=center;verticalAlign=middle;fontFamily=Helvetica;fontSize=11;fontColor=default;endArrow=none;endFill=0;entryX=0.5;entryY=0;entryDx=0;entryDy=0;" edge="1" parent="1" source="0gmloOZs-fSd3dOgQ3sd-8" target="0gmloOZs-fSd3dOgQ3sd-4">
          <mxGeometry relative="1" as="geometry">
            <mxPoint x="540" y="450" as="targetPoint" />
            <Array as="points">
              <mxPoint x="540" y="450" />
            </Array>
          </mxGeometry>
        </mxCell>
        <mxCell id="0gmloOZs-fSd3dOgQ3sd-12" style="edgeStyle=none;shape=connector;rounded=0;orthogonalLoop=1;jettySize=auto;html=1;exitX=0.5;exitY=1;exitDx=0;exitDy=0;entryX=0.5;entryY=0;entryDx=0;entryDy=0;labelBackgroundColor=default;strokeColor=default;align=center;verticalAlign=middle;fontFamily=Helvetica;fontSize=11;fontColor=default;endArrow=none;endFill=0;" edge="1" parent="1" source="0gmloOZs-fSd3dOgQ3sd-8" target="0gmloOZs-fSd3dOgQ3sd-3">
          <mxGeometry relative="1" as="geometry">
            <Array as="points">
              <mxPoint x="420" y="450" />
            </Array>
          </mxGeometry>
        </mxCell>
        <mxCell id="0gmloOZs-fSd3dOgQ3sd-8" value="" style="triangle;whiteSpace=wrap;html=1;dashed=0;direction=south;fontFamily=Helvetica;fontSize=11;fontColor=default;" vertex="1" parent="1">
          <mxGeometry x="450" y="420" width="60" height="60" as="geometry" />
        </mxCell>
        <mxCell id="0gmloOZs-fSd3dOgQ3sd-9" value="" style="shape=ellipse;html=1;dashed=0;whiteSpace=wrap;aspect=fixed;perimeter=ellipsePerimeter;" vertex="1" parent="1">
          <mxGeometry x="470" y="400" width="20" height="20" as="geometry" />
        </mxCell>
        <mxCell id="0gmloOZs-fSd3dOgQ3sd-13" value="(0,1)" style="text;html=1;align=center;verticalAlign=middle;resizable=0;points=[];autosize=1;strokeColor=none;fillColor=none;fontSize=11;fontFamily=Helvetica;fontColor=default;" vertex="1" parent="1">
          <mxGeometry x="535" y="478" width="50" height="30" as="geometry" />
        </mxCell>
        <mxCell id="0gmloOZs-fSd3dOgQ3sd-14" value="(0,1)" style="text;html=1;align=center;verticalAlign=middle;resizable=0;points=[];autosize=1;strokeColor=none;fillColor=none;fontSize=11;fontFamily=Helvetica;fontColor=default;" vertex="1" parent="1">
          <mxGeometry x="374" y="480" width="50" height="30" as="geometry" />
        </mxCell>
        <mxCell id="0gmloOZs-fSd3dOgQ3sd-15" value="(1,1)" style="text;html=1;align=center;verticalAlign=middle;resizable=0;points=[];autosize=1;strokeColor=none;fillColor=none;fontSize=11;fontFamily=Helvetica;fontColor=default;" vertex="1" parent="1">
          <mxGeometry x="480" y="380" width="50" height="30" as="geometry" />
        </mxCell>
        <mxCell id="0gmloOZs-fSd3dOgQ3sd-16" value="(1,n)" style="text;html=1;align=center;verticalAlign=middle;resizable=0;points=[];autosize=1;strokeColor=none;fillColor=none;fontSize=11;fontFamily=Helvetica;fontColor=default;" vertex="1" parent="1">
          <mxGeometry x="470" y="310" width="50" height="30" as="geometry" />
        </mxCell>
        <mxCell id="0gmloOZs-fSd3dOgQ3sd-17" value="(1,1)" style="text;html=1;align=center;verticalAlign=middle;resizable=0;points=[];autosize=1;strokeColor=none;fillColor=none;fontSize=11;fontFamily=Helvetica;fontColor=default;" vertex="1" parent="1">
          <mxGeometry x="470" y="190" width="50" height="30" as="geometry" />
        </mxCell>
        <mxCell id="0gmloOZs-fSd3dOgQ3sd-18" value="1:N" style="text;html=1;align=center;verticalAlign=middle;resizable=0;points=[];autosize=1;strokeColor=none;fillColor=none;fontSize=11;fontFamily=Helvetica;fontColor=default;" vertex="1" parent="1">
          <mxGeometry x="540" y="245" width="40" height="30" as="geometry" />
        </mxCell>
        <mxCell id="6FO8oxoLLgqlJH37kzeQ-1" value="TOTAL INCLUSIVA" style="text;html=1;align=center;verticalAlign=middle;resizable=0;points=[];autosize=1;strokeColor=default;fillColor=default;fontSize=11;fontFamily=Helvetica;fontColor=default;rotation=15;" vertex="1" parent="1">
          <mxGeometry x="560" y="420" width="120" height="30" as="geometry" />
        </mxCell>
        <mxCell id="wPWk6Q1Wkr0Pe-bjTboj-2" style="edgeStyle=none;shape=connector;rounded=0;orthogonalLoop=1;jettySize=auto;html=1;exitX=0;exitY=0.5;exitDx=0;exitDy=0;entryX=1;entryY=0.5;entryDx=0;entryDy=0;labelBackgroundColor=default;strokeColor=default;align=center;verticalAlign=middle;fontFamily=Helvetica;fontSize=11;fontColor=default;endArrow=none;endFill=0;" edge="1" parent="1" source="wPWk6Q1Wkr0Pe-bjTboj-1" target="NTO8GKyaMLIdz0zo7kCo-1">
          <mxGeometry relative="1" as="geometry" />
        </mxCell>
        <mxCell id="wPWk6Q1Wkr0Pe-bjTboj-1" value="id-Local" style="ellipse;whiteSpace=wrap;html=1;align=center;fontStyle=4;fontFamily=Helvetica;fontSize=11;fontColor=default;" vertex="1" parent="1">
          <mxGeometry x="550" y="340" width="100" height="40" as="geometry" />
        </mxCell>
        <mxCell id="wPWk6Q1Wkr0Pe-bjTboj-4" style="edgeStyle=none;shape=connector;rounded=0;orthogonalLoop=1;jettySize=auto;html=1;exitX=0;exitY=0.5;exitDx=0;exitDy=0;entryX=1;entryY=0.5;entryDx=0;entryDy=0;labelBackgroundColor=default;strokeColor=default;align=center;verticalAlign=middle;fontFamily=Helvetica;fontSize=11;fontColor=default;endArrow=none;endFill=0;" edge="1" parent="1" source="wPWk6Q1Wkr0Pe-bjTboj-3" target="0gmloOZs-fSd3dOgQ3sd-2">
          <mxGeometry relative="1" as="geometry" />
        </mxCell>
        <mxCell id="wPWk6Q1Wkr0Pe-bjTboj-3" value="id-Pizzerias" style="ellipse;whiteSpace=wrap;html=1;align=center;fontStyle=4;fontFamily=Helvetica;fontSize=11;fontColor=default;" vertex="1" parent="1">
          <mxGeometry x="550" y="150" width="100" height="40" as="geometry" />
        </mxCell>
        <mxCell id="RQQLVC7tMZ6XLfBExUfs-1" value="&lt;b&gt;&lt;font style=&quot;font-size: 14px;&quot; face=&quot;Courier New&quot;&gt;Marcos Zahonero&lt;/font&gt;&lt;/b&gt;" style="text;html=1;align=center;verticalAlign=middle;resizable=0;points=[];autosize=1;strokeColor=default;fillColor=default;fontSize=11;fontFamily=Helvetica;fontColor=default;" vertex="1" parent="1">
          <mxGeometry x="415" y="660" width="150" height="30" as="geometry" />
        </mxCell>
      </root>
    </mxGraphModel>
  </diagram>
  <diagram id="i4t3AiG0SDPYN31qFeMC" name="Actividad 3">
    <mxGraphModel dx="1393" dy="758" grid="1" gridSize="10" guides="1" tooltips="1" connect="1" arrows="1" fold="1" page="1" pageScale="1" pageWidth="980" pageHeight="690" math="0" shadow="0">
      <root>
        <mxCell id="0" />
        <mxCell id="1" parent="0" />
        <mxCell id="EzcLlCvAPp9ahs0tj_Ay-1" value="&lt;b&gt;3. Diseña un pequeño diagrama para el siguiente fragmento del sistema: en una pizzería quieren registrar las líneas que componen cada pedido. Un pedido puede contener &lt;br&gt;0 ovarias líneas,mientras que una línea solo puede pertenecer a un pedido. Una línea no puede existir sin un pedido. De los pedidos se quiere guardar la dirección (calle, &lt;br&gt;ciudad, cp),&amp;nbsp;fecha del pedido, días desde la fecha del pedido (derivado).De la línea se quiere guardar la cantidad, precio, y total (derivado).&lt;/b&gt;" style="text;html=1;align=center;verticalAlign=middle;resizable=0;points=[];autosize=1;strokeColor=default;fillColor=default;fontSize=11;fontFamily=Helvetica;fontColor=default;" vertex="1" parent="1">
          <mxGeometry x="30" y="10" width="920" height="50" as="geometry" />
        </mxCell>
        <mxCell id="JYm8S-WKdp6w7MW1gHow-6" style="edgeStyle=none;shape=connector;rounded=0;orthogonalLoop=1;jettySize=auto;html=1;exitX=0;exitY=1;exitDx=0;exitDy=0;entryX=1;entryY=0;entryDx=0;entryDy=0;labelBackgroundColor=default;strokeColor=default;align=center;verticalAlign=middle;fontFamily=Helvetica;fontSize=11;fontColor=default;endArrow=none;endFill=0;" edge="1" parent="1" source="EzcLlCvAPp9ahs0tj_Ay-2" target="JYm8S-WKdp6w7MW1gHow-5">
          <mxGeometry relative="1" as="geometry" />
        </mxCell>
        <mxCell id="EzcLlCvAPp9ahs0tj_Ay-2" value="Pedido" style="whiteSpace=wrap;html=1;align=center;fontFamily=Helvetica;fontSize=11;fontColor=default;" vertex="1" parent="1">
          <mxGeometry x="290" y="250" width="100" height="40" as="geometry" />
        </mxCell>
        <mxCell id="EzcLlCvAPp9ahs0tj_Ay-3" value="Línea" style="shape=ext;margin=3;double=1;whiteSpace=wrap;html=1;align=center;fontFamily=Helvetica;fontSize=11;fontColor=default;" vertex="1" parent="1">
          <mxGeometry x="580" y="250" width="100" height="40" as="geometry" />
        </mxCell>
        <mxCell id="EzcLlCvAPp9ahs0tj_Ay-5" value="" style="edgeStyle=none;shape=connector;rounded=0;orthogonalLoop=1;jettySize=auto;html=1;labelBackgroundColor=default;strokeColor=default;align=center;verticalAlign=middle;fontFamily=Helvetica;fontSize=11;fontColor=default;endArrow=none;endFill=0;" edge="1" parent="1" source="EzcLlCvAPp9ahs0tj_Ay-4" target="EzcLlCvAPp9ahs0tj_Ay-2">
          <mxGeometry relative="1" as="geometry" />
        </mxCell>
        <mxCell id="EzcLlCvAPp9ahs0tj_Ay-6" value="" style="edgeStyle=none;shape=connector;rounded=0;orthogonalLoop=1;jettySize=auto;html=1;labelBackgroundColor=default;strokeColor=default;align=center;verticalAlign=middle;fontFamily=Helvetica;fontSize=11;fontColor=default;endArrow=none;endFill=0;" edge="1" parent="1" source="EzcLlCvAPp9ahs0tj_Ay-4" target="EzcLlCvAPp9ahs0tj_Ay-3">
          <mxGeometry relative="1" as="geometry" />
        </mxCell>
        <mxCell id="EzcLlCvAPp9ahs0tj_Ay-4" value="tiene" style="shape=rhombus;perimeter=rhombusPerimeter;whiteSpace=wrap;html=1;align=center;" vertex="1" parent="1">
          <mxGeometry x="430" y="240" width="120" height="60" as="geometry" />
        </mxCell>
        <mxCell id="EzcLlCvAPp9ahs0tj_Ay-15" style="edgeStyle=none;shape=connector;rounded=0;orthogonalLoop=1;jettySize=auto;html=1;exitX=0;exitY=0.5;exitDx=0;exitDy=0;entryX=1;entryY=0.5;entryDx=0;entryDy=0;labelBackgroundColor=default;strokeColor=default;align=center;verticalAlign=middle;fontFamily=Helvetica;fontSize=11;fontColor=default;endArrow=none;endFill=0;" edge="1" parent="1" source="EzcLlCvAPp9ahs0tj_Ay-7" target="EzcLlCvAPp9ahs0tj_Ay-10">
          <mxGeometry relative="1" as="geometry" />
        </mxCell>
        <mxCell id="EzcLlCvAPp9ahs0tj_Ay-16" style="edgeStyle=none;shape=connector;rounded=0;orthogonalLoop=1;jettySize=auto;html=1;exitX=0;exitY=1;exitDx=0;exitDy=0;entryX=1;entryY=0;entryDx=0;entryDy=0;labelBackgroundColor=default;strokeColor=default;align=center;verticalAlign=middle;fontFamily=Helvetica;fontSize=11;fontColor=default;endArrow=none;endFill=0;" edge="1" parent="1" source="EzcLlCvAPp9ahs0tj_Ay-7" target="EzcLlCvAPp9ahs0tj_Ay-14">
          <mxGeometry relative="1" as="geometry" />
        </mxCell>
        <mxCell id="EzcLlCvAPp9ahs0tj_Ay-18" value="" style="edgeStyle=none;shape=connector;rounded=0;orthogonalLoop=1;jettySize=auto;html=1;labelBackgroundColor=default;strokeColor=default;align=center;verticalAlign=middle;fontFamily=Helvetica;fontSize=11;fontColor=default;endArrow=none;endFill=0;" edge="1" parent="1" source="EzcLlCvAPp9ahs0tj_Ay-7" target="EzcLlCvAPp9ahs0tj_Ay-2">
          <mxGeometry relative="1" as="geometry" />
        </mxCell>
        <mxCell id="EzcLlCvAPp9ahs0tj_Ay-7" value="Dirección" style="ellipse;whiteSpace=wrap;html=1;align=center;fontFamily=Helvetica;fontSize=11;fontColor=default;" vertex="1" parent="1">
          <mxGeometry x="160" y="210" width="100" height="40" as="geometry" />
        </mxCell>
        <mxCell id="EzcLlCvAPp9ahs0tj_Ay-8" value="Calle" style="ellipse;whiteSpace=wrap;html=1;align=center;fontFamily=Helvetica;fontSize=11;fontColor=default;" vertex="1" parent="1">
          <mxGeometry x="60" y="160" width="100" height="40" as="geometry" />
        </mxCell>
        <mxCell id="EzcLlCvAPp9ahs0tj_Ay-10" value="Ciudad" style="ellipse;whiteSpace=wrap;html=1;align=center;fontFamily=Helvetica;fontSize=11;fontColor=default;" vertex="1" parent="1">
          <mxGeometry x="40" y="210" width="100" height="40" as="geometry" />
        </mxCell>
        <mxCell id="EzcLlCvAPp9ahs0tj_Ay-14" value="Código postal" style="ellipse;whiteSpace=wrap;html=1;align=center;fontFamily=Helvetica;fontSize=11;fontColor=default;" vertex="1" parent="1">
          <mxGeometry x="60" y="260" width="100" height="40" as="geometry" />
        </mxCell>
        <mxCell id="EzcLlCvAPp9ahs0tj_Ay-17" style="edgeStyle=none;shape=connector;rounded=0;orthogonalLoop=1;jettySize=auto;html=1;exitX=0;exitY=0;exitDx=0;exitDy=0;entryX=1;entryY=1;entryDx=0;entryDy=0;labelBackgroundColor=default;strokeColor=default;align=center;verticalAlign=middle;fontFamily=Helvetica;fontSize=11;fontColor=default;endArrow=none;endFill=0;" edge="1" parent="1" source="EzcLlCvAPp9ahs0tj_Ay-7" target="EzcLlCvAPp9ahs0tj_Ay-8">
          <mxGeometry relative="1" as="geometry" />
        </mxCell>
        <mxCell id="EzcLlCvAPp9ahs0tj_Ay-20" value="" style="edgeStyle=none;shape=connector;rounded=0;orthogonalLoop=1;jettySize=auto;html=1;labelBackgroundColor=default;strokeColor=default;align=center;verticalAlign=middle;fontFamily=Helvetica;fontSize=11;fontColor=default;endArrow=none;endFill=0;" edge="1" parent="1" source="EzcLlCvAPp9ahs0tj_Ay-19" target="EzcLlCvAPp9ahs0tj_Ay-2">
          <mxGeometry relative="1" as="geometry" />
        </mxCell>
        <mxCell id="EzcLlCvAPp9ahs0tj_Ay-19" value="Fecha del pedido" style="ellipse;whiteSpace=wrap;html=1;align=center;fontFamily=Helvetica;fontSize=11;fontColor=default;" vertex="1" parent="1">
          <mxGeometry x="290" y="330" width="100" height="40" as="geometry" />
        </mxCell>
        <mxCell id="EzcLlCvAPp9ahs0tj_Ay-23" value="" style="edgeStyle=none;shape=connector;rounded=0;orthogonalLoop=1;jettySize=auto;html=1;labelBackgroundColor=default;strokeColor=default;align=center;verticalAlign=middle;fontFamily=Helvetica;fontSize=11;fontColor=default;endArrow=none;endFill=0;" edge="1" parent="1" source="EzcLlCvAPp9ahs0tj_Ay-22" target="EzcLlCvAPp9ahs0tj_Ay-2">
          <mxGeometry relative="1" as="geometry" />
        </mxCell>
        <mxCell id="EzcLlCvAPp9ahs0tj_Ay-22" value="&lt;span style=&quot;color: rgb(0, 0, 0); font-family: Helvetica; font-size: 11px; font-style: normal; font-variant-ligatures: normal; font-variant-caps: normal; font-weight: 400; letter-spacing: normal; orphans: 2; text-align: center; text-indent: 0px; text-transform: none; widows: 2; word-spacing: 0px; -webkit-text-stroke-width: 0px; background-color: rgb(251, 251, 251); text-decoration-thickness: initial; text-decoration-style: initial; text-decoration-color: initial; float: none; display: inline !important;&quot;&gt;Días desde el pedido&lt;/span&gt;" style="ellipse;whiteSpace=wrap;html=1;align=center;dashed=1;fontFamily=Helvetica;fontSize=11;fontColor=default;" vertex="1" parent="1">
          <mxGeometry x="290" y="170" width="100" height="40" as="geometry" />
        </mxCell>
        <mxCell id="JYm8S-WKdp6w7MW1gHow-2" style="edgeStyle=none;shape=connector;rounded=0;orthogonalLoop=1;jettySize=auto;html=1;entryX=1;entryY=0.25;entryDx=0;entryDy=0;labelBackgroundColor=default;strokeColor=default;align=center;verticalAlign=middle;fontFamily=Helvetica;fontSize=11;fontColor=default;endArrow=none;endFill=0;" edge="1" parent="1" source="EzcLlCvAPp9ahs0tj_Ay-24" target="EzcLlCvAPp9ahs0tj_Ay-3">
          <mxGeometry relative="1" as="geometry" />
        </mxCell>
        <mxCell id="EzcLlCvAPp9ahs0tj_Ay-24" value="Cantidad" style="ellipse;whiteSpace=wrap;html=1;align=center;fontFamily=Helvetica;fontSize=11;fontColor=default;" vertex="1" parent="1">
          <mxGeometry x="710" y="220" width="100" height="40" as="geometry" />
        </mxCell>
        <mxCell id="EzcLlCvAPp9ahs0tj_Ay-26" value="&lt;span style=&quot;color: rgb(0, 0, 0); font-family: Helvetica; font-size: 11px; font-style: normal; font-variant-ligatures: normal; font-variant-caps: normal; font-weight: 400; letter-spacing: normal; orphans: 2; text-align: center; text-indent: 0px; text-transform: none; widows: 2; word-spacing: 0px; -webkit-text-stroke-width: 0px; background-color: rgb(251, 251, 251); text-decoration-thickness: initial; text-decoration-style: initial; text-decoration-color: initial; float: none; display: inline !important;&quot;&gt;Días desde el pedido&lt;/span&gt;" style="ellipse;whiteSpace=wrap;html=1;align=center;dashed=1;fontFamily=Helvetica;fontSize=11;fontColor=default;" vertex="1" parent="1">
          <mxGeometry x="580" y="170" width="100" height="40" as="geometry" />
        </mxCell>
        <mxCell id="JYm8S-WKdp6w7MW1gHow-3" style="edgeStyle=none;shape=connector;rounded=0;orthogonalLoop=1;jettySize=auto;html=1;entryX=0.5;entryY=0;entryDx=0;entryDy=0;labelBackgroundColor=default;strokeColor=default;align=center;verticalAlign=middle;fontFamily=Helvetica;fontSize=11;fontColor=default;endArrow=none;endFill=0;" edge="1" parent="1" source="EzcLlCvAPp9ahs0tj_Ay-27" target="EzcLlCvAPp9ahs0tj_Ay-3">
          <mxGeometry relative="1" as="geometry" />
        </mxCell>
        <mxCell id="EzcLlCvAPp9ahs0tj_Ay-27" value="&lt;span style=&quot;color: rgb(0, 0, 0); font-family: Helvetica; font-size: 11px; font-style: normal; font-variant-ligatures: normal; font-variant-caps: normal; font-weight: 400; letter-spacing: normal; orphans: 2; text-align: center; text-indent: 0px; text-transform: none; widows: 2; word-spacing: 0px; -webkit-text-stroke-width: 0px; background-color: rgb(251, 251, 251); text-decoration-thickness: initial; text-decoration-style: initial; text-decoration-color: initial; float: none; display: inline !important;&quot;&gt;Total&lt;/span&gt;" style="ellipse;whiteSpace=wrap;html=1;align=center;dashed=1;fontFamily=Helvetica;fontSize=11;fontColor=default;" vertex="1" parent="1">
          <mxGeometry x="580" y="170" width="100" height="40" as="geometry" />
        </mxCell>
        <mxCell id="JYm8S-WKdp6w7MW1gHow-1" style="edgeStyle=none;shape=connector;rounded=0;orthogonalLoop=1;jettySize=auto;html=1;entryX=0.5;entryY=1;entryDx=0;entryDy=0;labelBackgroundColor=default;strokeColor=default;align=center;verticalAlign=middle;fontFamily=Helvetica;fontSize=11;fontColor=default;endArrow=none;endFill=0;" edge="1" parent="1" source="EzcLlCvAPp9ahs0tj_Ay-28" target="EzcLlCvAPp9ahs0tj_Ay-3">
          <mxGeometry relative="1" as="geometry" />
        </mxCell>
        <mxCell id="EzcLlCvAPp9ahs0tj_Ay-28" value="Precio" style="ellipse;whiteSpace=wrap;html=1;align=center;fontFamily=Helvetica;fontSize=11;fontColor=default;" vertex="1" parent="1">
          <mxGeometry x="580" y="330" width="100" height="40" as="geometry" />
        </mxCell>
        <mxCell id="JYm8S-WKdp6w7MW1gHow-5" value="&lt;span style=&quot;color: rgb(0, 0, 0); font-family: Helvetica; font-size: 11px; font-style: normal; font-variant-ligatures: normal; font-variant-caps: normal; font-weight: 400; letter-spacing: normal; orphans: 2; text-align: center; text-indent: 0px; text-transform: none; widows: 2; word-spacing: 0px; -webkit-text-stroke-width: 0px; background-color: rgb(251, 251, 251); text-decoration-thickness: initial; text-decoration-style: initial; text-decoration-color: initial; float: none; display: inline !important;&quot;&gt;id-Pedido&lt;/span&gt;" style="ellipse;whiteSpace=wrap;html=1;align=center;fontStyle=4;fontFamily=Helvetica;fontSize=11;fontColor=default;" vertex="1" parent="1">
          <mxGeometry x="170" y="305" width="100" height="40" as="geometry" />
        </mxCell>
        <mxCell id="3AwAhM71orfIrpmLPNp0-2" style="edgeStyle=none;shape=connector;rounded=0;orthogonalLoop=1;jettySize=auto;html=1;exitX=0;exitY=0;exitDx=0;exitDy=0;entryX=1;entryY=0.75;entryDx=0;entryDy=0;labelBackgroundColor=default;strokeColor=default;align=center;verticalAlign=middle;fontFamily=Helvetica;fontSize=11;fontColor=default;endArrow=none;endFill=0;" edge="1" parent="1" source="3AwAhM71orfIrpmLPNp0-1" target="EzcLlCvAPp9ahs0tj_Ay-3">
          <mxGeometry relative="1" as="geometry" />
        </mxCell>
        <mxCell id="3AwAhM71orfIrpmLPNp0-1" value="id-línea" style="ellipse;whiteSpace=wrap;html=1;align=center;fontStyle=4;fontFamily=Helvetica;fontSize=11;fontColor=default;" vertex="1" parent="1">
          <mxGeometry x="710" y="290" width="100" height="40" as="geometry" />
        </mxCell>
        <mxCell id="u9ckUWB2_5P7wX7PWFHr-1" value="&lt;b&gt;&lt;font style=&quot;font-size: 14px;&quot; face=&quot;Courier New&quot;&gt;Marcos Zahonero&lt;/font&gt;&lt;/b&gt;" style="text;html=1;align=center;verticalAlign=middle;resizable=0;points=[];autosize=1;strokeColor=default;fillColor=default;fontSize=11;fontFamily=Helvetica;fontColor=default;" vertex="1" parent="1">
          <mxGeometry x="415" y="660" width="150" height="30" as="geometry" />
        </mxCell>
      </root>
    </mxGraphModel>
  </diagram>
  <diagram id="U1B20Wk3aXUq6sHQaZeB" name="Actividad 4">
    <mxGraphModel dx="961" dy="523" grid="1" gridSize="10" guides="1" tooltips="1" connect="1" arrows="1" fold="1" page="1" pageScale="1" pageWidth="980" pageHeight="690" math="0" shadow="0">
      <root>
        <mxCell id="0" />
        <mxCell id="1" parent="0" />
        <mxCell id="w9cFxhZqzC75QAgz-I_o-4" value="&lt;b&gt;&lt;span style=&quot;background-color: initial;&quot;&gt;4. Diseña un pequeño diagrama&amp;nbsp;&lt;/span&gt;&lt;span style=&quot;background-color: initial;&quot;&gt;para el siguiente fragmento del sistema: Cada local de una pizzería&amp;nbsp;&lt;/span&gt;&lt;span style=&quot;background-color: initial;&quot;&gt;tiene asignados varios empleados, que pueden ser únicamente de uno&amp;nbsp;&lt;/span&gt;&lt;span style=&quot;background-color: initial;&quot;&gt;de estos tipos: cocineros, camareros, telefonistas o motoristas. Los&amp;nbsp;&lt;/span&gt;&lt;span style=&quot;background-color: initial;&quot;&gt;empleados pueden tener más de un rol, en un momento dado. Por&amp;nbsp;&lt;/span&gt;&lt;span style=&quot;background-color: initial;&quot;&gt;ejemplo, un camarero puede ser telefonista. Los cocineros pueden ser&amp;nbsp;&lt;/span&gt;&lt;span style=&quot;background-color: initial;&quot;&gt;jefes o empleados. 1 jefe tiene uno o varios empleados a su cargo,&amp;nbsp;&lt;/span&gt;&lt;span style=&quot;background-color: initial;&quot;&gt;mientras que un empleado puede tener 1 o varios jefes. De los&amp;nbsp;&lt;/span&gt;&lt;span style=&quot;background-color: initial;&quot;&gt;empleados se quiere guardar el DNI, nombre completo (nombre,&amp;nbsp;&lt;/span&gt;&lt;span style=&quot;background-color: initial;&quot;&gt;apellidos), dirección. De los motoristas el tipo de carnet.&lt;/span&gt;&lt;br&gt;&lt;/b&gt;&lt;ol&gt;&lt;br&gt;&lt;/ol&gt;" style="text;whiteSpace=wrap;html=1;fontSize=11;fontFamily=Helvetica;fontColor=default;" vertex="1" parent="1">
          <mxGeometry x="120" y="10" width="705" height="120" as="geometry" />
        </mxCell>
        <mxCell id="w9cFxhZqzC75QAgz-I_o-11" style="edgeStyle=none;shape=connector;rounded=0;orthogonalLoop=1;jettySize=auto;html=1;entryX=0;entryY=0.5;entryDx=0;entryDy=0;labelBackgroundColor=default;strokeColor=default;align=center;verticalAlign=middle;fontFamily=Helvetica;fontSize=11;fontColor=default;endArrow=none;endFill=0;" edge="1" parent="1" source="w9cFxhZqzC75QAgz-I_o-5" target="w9cFxhZqzC75QAgz-I_o-10">
          <mxGeometry relative="1" as="geometry" />
        </mxCell>
        <mxCell id="w9cFxhZqzC75QAgz-I_o-5" value="Empleado" style="whiteSpace=wrap;html=1;align=center;" vertex="1" parent="1">
          <mxGeometry x="420" y="240" width="100" height="40" as="geometry" />
        </mxCell>
        <mxCell id="w9cFxhZqzC75QAgz-I_o-6" value="Cocineros" style="whiteSpace=wrap;html=1;align=center;" vertex="1" parent="1">
          <mxGeometry x="290" y="350" width="100" height="40" as="geometry" />
        </mxCell>
        <mxCell id="w9cFxhZqzC75QAgz-I_o-7" value="Camareros" style="whiteSpace=wrap;html=1;align=center;" vertex="1" parent="1">
          <mxGeometry x="360" y="410" width="100" height="40" as="geometry" />
        </mxCell>
        <mxCell id="w9cFxhZqzC75QAgz-I_o-8" value="Telefonistas" style="whiteSpace=wrap;html=1;align=center;" vertex="1" parent="1">
          <mxGeometry x="480" y="410" width="100" height="40" as="geometry" />
        </mxCell>
        <mxCell id="w9cFxhZqzC75QAgz-I_o-13" style="edgeStyle=none;shape=connector;rounded=0;orthogonalLoop=1;jettySize=auto;html=1;labelBackgroundColor=default;strokeColor=default;align=center;verticalAlign=middle;fontFamily=Helvetica;fontSize=11;fontColor=default;endArrow=none;endFill=0;" edge="1" parent="1" source="w9cFxhZqzC75QAgz-I_o-9">
          <mxGeometry relative="1" as="geometry">
            <mxPoint x="630" y="340" as="targetPoint" />
          </mxGeometry>
        </mxCell>
        <mxCell id="w9cFxhZqzC75QAgz-I_o-18" value="" style="edgeStyle=none;shape=connector;rounded=0;orthogonalLoop=1;jettySize=auto;html=1;labelBackgroundColor=default;strokeColor=default;align=center;verticalAlign=middle;fontFamily=Helvetica;fontSize=11;fontColor=default;endArrow=none;endFill=0;" edge="1" parent="1" source="w9cFxhZqzC75QAgz-I_o-9" target="w9cFxhZqzC75QAgz-I_o-17">
          <mxGeometry relative="1" as="geometry" />
        </mxCell>
        <mxCell id="w9cFxhZqzC75QAgz-I_o-9" value="Motoristas" style="whiteSpace=wrap;html=1;align=center;" vertex="1" parent="1">
          <mxGeometry x="580" y="350" width="100" height="40" as="geometry" />
        </mxCell>
        <mxCell id="w9cFxhZqzC75QAgz-I_o-12" style="edgeStyle=none;shape=connector;rounded=0;orthogonalLoop=1;jettySize=auto;html=1;exitX=0.5;exitY=0;exitDx=0;exitDy=0;labelBackgroundColor=default;strokeColor=default;align=center;verticalAlign=middle;fontFamily=Helvetica;fontSize=11;fontColor=default;endArrow=none;endFill=0;" edge="1" parent="1" source="w9cFxhZqzC75QAgz-I_o-10">
          <mxGeometry relative="1" as="geometry">
            <mxPoint x="630" y="340" as="targetPoint" />
          </mxGeometry>
        </mxCell>
        <mxCell id="w9cFxhZqzC75QAgz-I_o-14" style="edgeStyle=none;shape=connector;rounded=0;orthogonalLoop=1;jettySize=auto;html=1;exitX=0.723;exitY=0.403;exitDx=0;exitDy=0;entryX=0.5;entryY=0;entryDx=0;entryDy=0;labelBackgroundColor=default;strokeColor=default;align=center;verticalAlign=middle;fontFamily=Helvetica;fontSize=11;fontColor=default;endArrow=none;endFill=0;exitPerimeter=0;" edge="1" parent="1" source="w9cFxhZqzC75QAgz-I_o-10" target="w9cFxhZqzC75QAgz-I_o-8">
          <mxGeometry relative="1" as="geometry">
            <Array as="points" />
          </mxGeometry>
        </mxCell>
        <mxCell id="w9cFxhZqzC75QAgz-I_o-10" value="ES" style="triangle;whiteSpace=wrap;html=1;dashed=0;direction=south;" vertex="1" parent="1">
          <mxGeometry x="440" y="310" width="60" height="60" as="geometry" />
        </mxCell>
        <mxCell id="w9cFxhZqzC75QAgz-I_o-15" style="edgeStyle=none;shape=connector;rounded=0;orthogonalLoop=1;jettySize=auto;html=1;exitX=0.5;exitY=0;exitDx=0;exitDy=0;entryX=0.763;entryY=0.637;entryDx=0;entryDy=0;entryPerimeter=0;labelBackgroundColor=default;strokeColor=default;align=center;verticalAlign=middle;fontFamily=Helvetica;fontSize=11;fontColor=default;endArrow=none;endFill=0;" edge="1" parent="1" source="w9cFxhZqzC75QAgz-I_o-7" target="w9cFxhZqzC75QAgz-I_o-10">
          <mxGeometry relative="1" as="geometry" />
        </mxCell>
        <mxCell id="w9cFxhZqzC75QAgz-I_o-16" style="edgeStyle=none;shape=connector;rounded=0;orthogonalLoop=1;jettySize=auto;html=1;entryX=0.5;entryY=1;entryDx=0;entryDy=0;labelBackgroundColor=default;strokeColor=default;align=center;verticalAlign=middle;fontFamily=Helvetica;fontSize=11;fontColor=default;endArrow=none;endFill=0;" edge="1" parent="1" source="w9cFxhZqzC75QAgz-I_o-6" target="w9cFxhZqzC75QAgz-I_o-10">
          <mxGeometry relative="1" as="geometry">
            <Array as="points">
              <mxPoint x="340" y="340" />
            </Array>
          </mxGeometry>
        </mxCell>
        <mxCell id="w9cFxhZqzC75QAgz-I_o-17" value="Tipo de carnet" style="ellipse;whiteSpace=wrap;html=1;align=center;fontFamily=Helvetica;fontSize=11;fontColor=default;" vertex="1" parent="1">
          <mxGeometry x="710" y="350" width="100" height="40" as="geometry" />
        </mxCell>
        <mxCell id="w9cFxhZqzC75QAgz-I_o-26" value="" style="edgeStyle=none;shape=connector;rounded=0;orthogonalLoop=1;jettySize=auto;html=1;labelBackgroundColor=default;strokeColor=default;align=center;verticalAlign=middle;fontFamily=Helvetica;fontSize=11;fontColor=default;endArrow=none;endFill=0;entryX=0.75;entryY=0;entryDx=0;entryDy=0;" edge="1" parent="1" source="w9cFxhZqzC75QAgz-I_o-19" target="w9cFxhZqzC75QAgz-I_o-5">
          <mxGeometry relative="1" as="geometry">
            <mxPoint x="470" y="240" as="targetPoint" />
          </mxGeometry>
        </mxCell>
        <mxCell id="w9cFxhZqzC75QAgz-I_o-19" value="DNI" style="ellipse;whiteSpace=wrap;html=1;align=center;fontFamily=Helvetica;fontSize=11;fontColor=default;" vertex="1" parent="1">
          <mxGeometry x="500" y="160" width="100" height="40" as="geometry" />
        </mxCell>
        <mxCell id="w9cFxhZqzC75QAgz-I_o-23" style="edgeStyle=none;shape=connector;rounded=0;orthogonalLoop=1;jettySize=auto;html=1;entryX=0;entryY=1;entryDx=0;entryDy=0;labelBackgroundColor=default;strokeColor=default;align=center;verticalAlign=middle;fontFamily=Helvetica;fontSize=11;fontColor=default;endArrow=none;endFill=0;" edge="1" parent="1" source="w9cFxhZqzC75QAgz-I_o-20" target="w9cFxhZqzC75QAgz-I_o-21">
          <mxGeometry relative="1" as="geometry" />
        </mxCell>
        <mxCell id="w9cFxhZqzC75QAgz-I_o-24" style="edgeStyle=none;shape=connector;rounded=0;orthogonalLoop=1;jettySize=auto;html=1;exitX=0.956;exitY=0.718;exitDx=0;exitDy=0;entryX=0;entryY=0.5;entryDx=0;entryDy=0;labelBackgroundColor=default;strokeColor=default;align=center;verticalAlign=middle;fontFamily=Helvetica;fontSize=11;fontColor=default;endArrow=none;endFill=0;exitPerimeter=0;" edge="1" parent="1" source="w9cFxhZqzC75QAgz-I_o-20" target="w9cFxhZqzC75QAgz-I_o-22">
          <mxGeometry relative="1" as="geometry" />
        </mxCell>
        <mxCell id="w9cFxhZqzC75QAgz-I_o-25" value="" style="edgeStyle=none;shape=connector;rounded=0;orthogonalLoop=1;jettySize=auto;html=1;labelBackgroundColor=default;strokeColor=default;align=center;verticalAlign=middle;fontFamily=Helvetica;fontSize=11;fontColor=default;endArrow=none;endFill=0;" edge="1" parent="1" source="w9cFxhZqzC75QAgz-I_o-20" target="w9cFxhZqzC75QAgz-I_o-5">
          <mxGeometry relative="1" as="geometry" />
        </mxCell>
        <mxCell id="w9cFxhZqzC75QAgz-I_o-20" value="Nombre completo" style="ellipse;whiteSpace=wrap;html=1;align=center;fontFamily=Helvetica;fontSize=11;fontColor=default;" vertex="1" parent="1">
          <mxGeometry x="540" y="240" width="100" height="40" as="geometry" />
        </mxCell>
        <mxCell id="w9cFxhZqzC75QAgz-I_o-21" value="Nombre" style="ellipse;whiteSpace=wrap;html=1;align=center;fontFamily=Helvetica;fontSize=11;fontColor=default;" vertex="1" parent="1">
          <mxGeometry x="660" y="200" width="100" height="40" as="geometry" />
        </mxCell>
        <mxCell id="w9cFxhZqzC75QAgz-I_o-22" value="Apellidos" style="ellipse;whiteSpace=wrap;html=1;align=center;fontFamily=Helvetica;fontSize=11;fontColor=default;" vertex="1" parent="1">
          <mxGeometry x="660" y="260" width="100" height="40" as="geometry" />
        </mxCell>
        <mxCell id="w9cFxhZqzC75QAgz-I_o-28" value="" style="edgeStyle=none;shape=connector;rounded=0;orthogonalLoop=1;jettySize=auto;html=1;labelBackgroundColor=default;strokeColor=default;align=center;verticalAlign=middle;fontFamily=Helvetica;fontSize=11;fontColor=default;endArrow=none;endFill=0;" edge="1" parent="1" source="w9cFxhZqzC75QAgz-I_o-27" target="w9cFxhZqzC75QAgz-I_o-5">
          <mxGeometry relative="1" as="geometry" />
        </mxCell>
        <mxCell id="w9cFxhZqzC75QAgz-I_o-27" value="Dirección" style="ellipse;whiteSpace=wrap;html=1;align=center;fontFamily=Helvetica;fontSize=11;fontColor=default;" vertex="1" parent="1">
          <mxGeometry x="360" y="160" width="100" height="40" as="geometry" />
        </mxCell>
        <mxCell id="w9cFxhZqzC75QAgz-I_o-32" style="edgeStyle=none;shape=connector;rounded=0;orthogonalLoop=1;jettySize=auto;html=1;entryX=0;entryY=0.5;entryDx=0;entryDy=0;labelBackgroundColor=default;strokeColor=default;align=center;verticalAlign=middle;fontFamily=Helvetica;fontSize=11;fontColor=default;endArrow=none;endFill=0;" edge="1" parent="1" source="w9cFxhZqzC75QAgz-I_o-29" target="w9cFxhZqzC75QAgz-I_o-5">
          <mxGeometry relative="1" as="geometry" />
        </mxCell>
        <mxCell id="w9cFxhZqzC75QAgz-I_o-29" value="supervisan" style="shape=rhombus;perimeter=rhombusPerimeter;whiteSpace=wrap;html=1;align=center;" vertex="1" parent="1">
          <mxGeometry x="270" y="230" width="120" height="60" as="geometry" />
        </mxCell>
        <mxCell id="w9cFxhZqzC75QAgz-I_o-31" style="edgeStyle=none;shape=connector;rounded=0;orthogonalLoop=1;jettySize=auto;html=1;entryX=0;entryY=0.5;entryDx=0;entryDy=0;labelBackgroundColor=default;strokeColor=default;align=center;verticalAlign=middle;fontFamily=Helvetica;fontSize=11;fontColor=default;endArrow=none;endFill=0;" edge="1" parent="1" source="w9cFxhZqzC75QAgz-I_o-30" target="w9cFxhZqzC75QAgz-I_o-29">
          <mxGeometry relative="1" as="geometry" />
        </mxCell>
        <mxCell id="w9cFxhZqzC75QAgz-I_o-30" value="Jefe" style="whiteSpace=wrap;html=1;align=center;" vertex="1" parent="1">
          <mxGeometry x="140" y="240" width="100" height="40" as="geometry" />
        </mxCell>
        <mxCell id="w9cFxhZqzC75QAgz-I_o-33" value="(1,n)" style="text;html=1;align=center;verticalAlign=middle;resizable=0;points=[];autosize=1;strokeColor=none;fillColor=none;fontSize=11;fontFamily=Helvetica;fontColor=default;" vertex="1" parent="1">
          <mxGeometry x="228" y="228" width="50" height="30" as="geometry" />
        </mxCell>
        <mxCell id="w9cFxhZqzC75QAgz-I_o-34" value="(1,n)" style="text;html=1;align=center;verticalAlign=middle;resizable=0;points=[];autosize=1;strokeColor=none;fillColor=none;fontSize=11;fontFamily=Helvetica;fontColor=default;" vertex="1" parent="1">
          <mxGeometry x="381" y="228" width="50" height="30" as="geometry" />
        </mxCell>
        <mxCell id="w9cFxhZqzC75QAgz-I_o-35" value="N:M" style="text;html=1;align=center;verticalAlign=middle;resizable=0;points=[];autosize=1;strokeColor=none;fillColor=none;fontSize=11;fontFamily=Helvetica;fontColor=default;" vertex="1" parent="1">
          <mxGeometry x="310" y="198" width="40" height="30" as="geometry" />
        </mxCell>
        <mxCell id="w9cFxhZqzC75QAgz-I_o-37" value="" style="shape=ellipse;html=1;dashed=0;whiteSpace=wrap;aspect=fixed;perimeter=ellipsePerimeter;" vertex="1" parent="1">
          <mxGeometry x="459.5" y="289" width="20" height="20" as="geometry" />
        </mxCell>
        <mxCell id="w9cFxhZqzC75QAgz-I_o-40" value="&lt;b&gt;Inclusiva total&lt;/b&gt;" style="rounded=1;whiteSpace=wrap;html=1;fontFamily=Helvetica;fontSize=11;fontColor=default;fillColor=#99CCFF;" vertex="1" parent="1">
          <mxGeometry x="407.5" y="110" width="130" height="30" as="geometry" />
        </mxCell>
        <mxCell id="yeZ31XPm-ic33g1-uS60-2" value="" style="edgeStyle=none;shape=connector;rounded=0;orthogonalLoop=1;jettySize=auto;html=1;labelBackgroundColor=default;strokeColor=default;align=center;verticalAlign=middle;fontFamily=Helvetica;fontSize=11;fontColor=default;endArrow=none;endFill=0;entryX=0.5;entryY=1;entryDx=0;entryDy=0;" edge="1" parent="1" source="yeZ31XPm-ic33g1-uS60-1" target="w9cFxhZqzC75QAgz-I_o-30">
          <mxGeometry relative="1" as="geometry" />
        </mxCell>
        <mxCell id="yeZ31XPm-ic33g1-uS60-1" value="id-Jefe" style="ellipse;whiteSpace=wrap;html=1;align=center;fontStyle=4;fontFamily=Helvetica;fontSize=11;fontColor=default;" vertex="1" parent="1">
          <mxGeometry x="140" y="305" width="100" height="40" as="geometry" />
        </mxCell>
        <mxCell id="LTCUVxoAR4U-uMbDA-uR-1" value="&lt;b&gt;&lt;font style=&quot;font-size: 14px;&quot; face=&quot;Courier New&quot;&gt;Marcos Zahonero&lt;/font&gt;&lt;/b&gt;" style="text;html=1;align=center;verticalAlign=middle;resizable=0;points=[];autosize=1;strokeColor=default;fillColor=default;fontSize=11;fontFamily=Helvetica;fontColor=default;" vertex="1" parent="1">
          <mxGeometry x="415" y="660" width="150" height="30" as="geometry" />
        </mxCell>
      </root>
    </mxGraphModel>
  </diagram>
  <diagram id="jy2zLnaXDMzCwEylhSf4" name="Actividad 5">
    <mxGraphModel dx="1393" dy="758" grid="1" gridSize="10" guides="1" tooltips="1" connect="1" arrows="1" fold="1" page="1" pageScale="1" pageWidth="980" pageHeight="690" math="0" shadow="0">
      <root>
        <mxCell id="0" />
        <mxCell id="1" parent="0" />
        <mxCell id="bbmFzuGvdpnTMccp4fQ7-1" value="&lt;b&gt;&lt;span style=&quot;background-color: initial;&quot;&gt;5. Diseña un pequeño diagrama para el siguiente fragmento del sistema:&amp;nbsp;&lt;/span&gt;&lt;span style=&quot;background-color: initial;&quot;&gt;Cada escudería tiene varios monoplazas (identificados por un&amp;nbsp;&lt;/span&gt;&lt;span style=&quot;background-color: initial;&quot;&gt;número) para participar en cada Campeonato. Los monoplazas de una&amp;nbsp;&lt;/span&gt;&lt;span style=&quot;background-color: initial;&quot;&gt;misma escudería pueden ir equipados con diferente motor.&amp;nbsp;&lt;/span&gt;&lt;span style=&quot;background-color: initial;&quot;&gt;Recuerda que todas&amp;nbsp;&lt;/span&gt;&lt;span style=&quot;background-color: initial;&quot;&gt;las entidades deben tener una clave principal.&lt;/span&gt;&lt;/b&gt;" style="text;whiteSpace=wrap;html=1;fontSize=11;fontFamily=Helvetica;fontColor=default;strokeColor=default;fillColor=default;" vertex="1" parent="1">
          <mxGeometry x="180" y="20" width="620" height="60" as="geometry" />
        </mxCell>
        <mxCell id="bbmFzuGvdpnTMccp4fQ7-6" value="" style="edgeStyle=none;shape=connector;rounded=0;orthogonalLoop=1;jettySize=auto;html=1;labelBackgroundColor=default;strokeColor=default;align=center;verticalAlign=middle;fontFamily=Helvetica;fontSize=11;fontColor=default;endArrow=none;endFill=0;" edge="1" parent="1" source="bbmFzuGvdpnTMccp4fQ7-2" target="bbmFzuGvdpnTMccp4fQ7-5">
          <mxGeometry relative="1" as="geometry" />
        </mxCell>
        <mxCell id="bbmFzuGvdpnTMccp4fQ7-10" value="" style="edgeStyle=none;shape=connector;rounded=0;orthogonalLoop=1;jettySize=auto;html=1;labelBackgroundColor=default;strokeColor=default;align=center;verticalAlign=middle;fontFamily=Helvetica;fontSize=11;fontColor=default;endArrow=none;endFill=0;" edge="1" parent="1" source="bbmFzuGvdpnTMccp4fQ7-2" target="bbmFzuGvdpnTMccp4fQ7-4">
          <mxGeometry relative="1" as="geometry" />
        </mxCell>
        <mxCell id="bbmFzuGvdpnTMccp4fQ7-2" value="Escuderia" style="whiteSpace=wrap;html=1;align=center;" vertex="1" parent="1">
          <mxGeometry x="437" y="150" width="100" height="40" as="geometry" />
        </mxCell>
        <mxCell id="bbmFzuGvdpnTMccp4fQ7-9" value="" style="edgeStyle=none;shape=connector;rounded=0;orthogonalLoop=1;jettySize=auto;html=1;labelBackgroundColor=default;strokeColor=default;align=center;verticalAlign=middle;fontFamily=Helvetica;fontSize=11;fontColor=default;endArrow=none;endFill=0;" edge="1" parent="1" source="bbmFzuGvdpnTMccp4fQ7-3" target="bbmFzuGvdpnTMccp4fQ7-4">
          <mxGeometry relative="1" as="geometry" />
        </mxCell>
        <mxCell id="bbmFzuGvdpnTMccp4fQ7-3" value="tiene" style="shape=rhombus;perimeter=rhombusPerimeter;whiteSpace=wrap;html=1;align=center;" vertex="1" parent="1">
          <mxGeometry x="427" y="210" width="120" height="60" as="geometry" />
        </mxCell>
        <mxCell id="bbmFzuGvdpnTMccp4fQ7-16" style="edgeStyle=none;shape=connector;rounded=0;orthogonalLoop=1;jettySize=auto;html=1;exitX=1;exitY=1;exitDx=0;exitDy=0;entryX=0;entryY=0;entryDx=0;entryDy=0;labelBackgroundColor=default;strokeColor=default;align=center;verticalAlign=middle;fontFamily=Helvetica;fontSize=11;fontColor=default;endArrow=none;endFill=0;" edge="1" parent="1" source="bbmFzuGvdpnTMccp4fQ7-4" target="bbmFzuGvdpnTMccp4fQ7-13">
          <mxGeometry relative="1" as="geometry">
            <mxPoint x="597" y="375" as="targetPoint" />
          </mxGeometry>
        </mxCell>
        <mxCell id="bbmFzuGvdpnTMccp4fQ7-4" value="Monoplazas" style="whiteSpace=wrap;html=1;align=center;" vertex="1" parent="1">
          <mxGeometry x="437" y="295" width="100" height="40" as="geometry" />
        </mxCell>
        <mxCell id="bbmFzuGvdpnTMccp4fQ7-5" value="id-Escudería" style="ellipse;whiteSpace=wrap;html=1;align=center;fontStyle=4;fontFamily=Helvetica;fontSize=11;fontColor=default;" vertex="1" parent="1">
          <mxGeometry x="557" y="150" width="100" height="40" as="geometry" />
        </mxCell>
        <mxCell id="bbmFzuGvdpnTMccp4fQ7-8" value="" style="edgeStyle=none;shape=connector;rounded=0;orthogonalLoop=1;jettySize=auto;html=1;labelBackgroundColor=default;strokeColor=default;align=center;verticalAlign=middle;fontFamily=Helvetica;fontSize=11;fontColor=default;endArrow=none;endFill=0;" edge="1" parent="1" source="bbmFzuGvdpnTMccp4fQ7-7" target="bbmFzuGvdpnTMccp4fQ7-4">
          <mxGeometry relative="1" as="geometry" />
        </mxCell>
        <mxCell id="bbmFzuGvdpnTMccp4fQ7-7" value="id-Monoplazas" style="ellipse;whiteSpace=wrap;html=1;align=center;fontStyle=4;fontFamily=Helvetica;fontSize=11;fontColor=default;" vertex="1" parent="1">
          <mxGeometry x="567" y="295" width="100" height="40" as="geometry" />
        </mxCell>
        <mxCell id="bbmFzuGvdpnTMccp4fQ7-14" style="edgeStyle=none;shape=connector;rounded=0;orthogonalLoop=1;jettySize=auto;html=1;entryX=0.5;entryY=0;entryDx=0;entryDy=0;labelBackgroundColor=default;strokeColor=default;align=center;verticalAlign=middle;fontFamily=Helvetica;fontSize=11;fontColor=default;endArrow=none;endFill=0;" edge="1" parent="1" source="bbmFzuGvdpnTMccp4fQ7-11" target="bbmFzuGvdpnTMccp4fQ7-12">
          <mxGeometry relative="1" as="geometry" />
        </mxCell>
        <mxCell id="bbmFzuGvdpnTMccp4fQ7-15" style="edgeStyle=none;shape=connector;rounded=0;orthogonalLoop=1;jettySize=auto;html=1;exitX=1;exitY=0;exitDx=0;exitDy=0;entryX=0;entryY=1;entryDx=0;entryDy=0;labelBackgroundColor=default;strokeColor=default;align=center;verticalAlign=middle;fontFamily=Helvetica;fontSize=11;fontColor=default;endArrow=none;endFill=0;" edge="1" parent="1" source="bbmFzuGvdpnTMccp4fQ7-11" target="bbmFzuGvdpnTMccp4fQ7-4">
          <mxGeometry relative="1" as="geometry">
            <mxPoint x="397" y="375" as="sourcePoint" />
          </mxGeometry>
        </mxCell>
        <mxCell id="bbmFzuGvdpnTMccp4fQ7-11" value="compiten" style="shape=rhombus;perimeter=rhombusPerimeter;whiteSpace=wrap;html=1;align=center;" vertex="1" parent="1">
          <mxGeometry x="300" y="360" width="120" height="60" as="geometry" />
        </mxCell>
        <mxCell id="bbmFzuGvdpnTMccp4fQ7-12" value="Competición" style="whiteSpace=wrap;html=1;align=center;" vertex="1" parent="1">
          <mxGeometry x="310" y="500" width="100" height="40" as="geometry" />
        </mxCell>
        <mxCell id="bbmFzuGvdpnTMccp4fQ7-22" value="" style="edgeStyle=none;shape=connector;rounded=0;orthogonalLoop=1;jettySize=auto;html=1;labelBackgroundColor=default;strokeColor=default;align=center;verticalAlign=middle;fontFamily=Helvetica;fontSize=11;fontColor=default;endArrow=none;endFill=0;" edge="1" parent="1" source="bbmFzuGvdpnTMccp4fQ7-13" target="bbmFzuGvdpnTMccp4fQ7-17">
          <mxGeometry relative="1" as="geometry" />
        </mxCell>
        <mxCell id="bbmFzuGvdpnTMccp4fQ7-13" value="tienen" style="shape=rhombus;perimeter=rhombusPerimeter;whiteSpace=wrap;html=1;align=center;" vertex="1" parent="1">
          <mxGeometry x="560" y="360" width="120" height="60" as="geometry" />
        </mxCell>
        <mxCell id="bbmFzuGvdpnTMccp4fQ7-21" value="" style="edgeStyle=none;shape=connector;rounded=0;orthogonalLoop=1;jettySize=auto;html=1;labelBackgroundColor=default;strokeColor=default;align=center;verticalAlign=middle;fontFamily=Helvetica;fontSize=11;fontColor=default;endArrow=none;endFill=0;" edge="1" parent="1" source="bbmFzuGvdpnTMccp4fQ7-17" target="bbmFzuGvdpnTMccp4fQ7-20">
          <mxGeometry relative="1" as="geometry" />
        </mxCell>
        <mxCell id="bbmFzuGvdpnTMccp4fQ7-17" value="Motor" style="whiteSpace=wrap;html=1;align=center;" vertex="1" parent="1">
          <mxGeometry x="570" y="500" width="100" height="40" as="geometry" />
        </mxCell>
        <mxCell id="bbmFzuGvdpnTMccp4fQ7-19" value="" style="edgeStyle=none;shape=connector;rounded=0;orthogonalLoop=1;jettySize=auto;html=1;labelBackgroundColor=default;strokeColor=default;align=center;verticalAlign=middle;fontFamily=Helvetica;fontSize=11;fontColor=default;endArrow=none;endFill=0;" edge="1" parent="1" source="bbmFzuGvdpnTMccp4fQ7-18" target="bbmFzuGvdpnTMccp4fQ7-12">
          <mxGeometry relative="1" as="geometry" />
        </mxCell>
        <mxCell id="bbmFzuGvdpnTMccp4fQ7-18" value="id-Competicion" style="ellipse;whiteSpace=wrap;html=1;align=center;fontStyle=4;fontFamily=Helvetica;fontSize=11;fontColor=default;" vertex="1" parent="1">
          <mxGeometry x="190" y="500" width="100" height="40" as="geometry" />
        </mxCell>
        <mxCell id="bbmFzuGvdpnTMccp4fQ7-20" value="id-Motor" style="ellipse;whiteSpace=wrap;html=1;align=center;fontStyle=4;fontFamily=Helvetica;fontSize=11;fontColor=default;" vertex="1" parent="1">
          <mxGeometry x="690" y="500" width="100" height="40" as="geometry" />
        </mxCell>
        <mxCell id="bbmFzuGvdpnTMccp4fQ7-23" value="(1,1)" style="text;html=1;align=center;verticalAlign=middle;resizable=0;points=[];autosize=1;strokeColor=none;fillColor=none;fontSize=11;fontFamily=Helvetica;fontColor=default;" vertex="1" parent="1">
          <mxGeometry x="476" y="187" width="50" height="30" as="geometry" />
        </mxCell>
        <mxCell id="bbmFzuGvdpnTMccp4fQ7-24" value="(1,n)" style="text;html=1;align=center;verticalAlign=middle;resizable=0;points=[];autosize=1;strokeColor=none;fillColor=none;fontSize=11;fontFamily=Helvetica;fontColor=default;" vertex="1" parent="1">
          <mxGeometry x="478" y="268" width="50" height="30" as="geometry" />
        </mxCell>
        <mxCell id="bbmFzuGvdpnTMccp4fQ7-25" value="1:N" style="text;html=1;align=center;verticalAlign=middle;resizable=0;points=[];autosize=1;strokeColor=none;fillColor=none;fontSize=11;fontFamily=Helvetica;fontColor=default;" vertex="1" parent="1">
          <mxGeometry x="549" y="225" width="40" height="30" as="geometry" />
        </mxCell>
        <mxCell id="bbmFzuGvdpnTMccp4fQ7-26" value="(1,n)" style="text;html=1;align=center;verticalAlign=middle;resizable=0;points=[];autosize=1;strokeColor=none;fillColor=none;fontSize=11;fontFamily=Helvetica;fontColor=default;" vertex="1" parent="1">
          <mxGeometry x="615" y="458" width="50" height="30" as="geometry" />
        </mxCell>
        <mxCell id="bbmFzuGvdpnTMccp4fQ7-27" value="(1,1)" style="text;html=1;align=center;verticalAlign=middle;resizable=0;points=[];autosize=1;strokeColor=none;fillColor=none;fontSize=11;fontFamily=Helvetica;fontColor=default;" vertex="1" parent="1">
          <mxGeometry x="525" y="348" width="50" height="30" as="geometry" />
        </mxCell>
        <mxCell id="bbmFzuGvdpnTMccp4fQ7-28" value="1:N" style="text;html=1;align=center;verticalAlign=middle;resizable=0;points=[];autosize=1;strokeColor=none;fillColor=none;fontSize=11;fontFamily=Helvetica;fontColor=default;" vertex="1" parent="1">
          <mxGeometry x="680" y="375" width="40" height="30" as="geometry" />
        </mxCell>
        <mxCell id="bbmFzuGvdpnTMccp4fQ7-29" value="1:N" style="text;html=1;align=center;verticalAlign=middle;resizable=0;points=[];autosize=1;strokeColor=none;fillColor=none;fontSize=11;fontFamily=Helvetica;fontColor=default;" vertex="1" parent="1">
          <mxGeometry x="260" y="375" width="40" height="30" as="geometry" />
        </mxCell>
        <mxCell id="bbmFzuGvdpnTMccp4fQ7-30" value="(1,n)" style="text;html=1;align=center;verticalAlign=middle;resizable=0;points=[];autosize=1;strokeColor=none;fillColor=none;fontSize=11;fontFamily=Helvetica;fontColor=default;" vertex="1" parent="1">
          <mxGeometry x="360" y="330" width="50" height="30" as="geometry" />
        </mxCell>
        <mxCell id="VkKtdlye6nrlx4Q1S64y-1" value="&lt;b&gt;&lt;font style=&quot;font-size: 14px;&quot; face=&quot;Courier New&quot;&gt;Marcos Zahonero&lt;/font&gt;&lt;/b&gt;" style="text;html=1;align=center;verticalAlign=middle;resizable=0;points=[];autosize=1;strokeColor=default;fillColor=default;fontSize=11;fontFamily=Helvetica;fontColor=default;" vertex="1" parent="1">
          <mxGeometry x="415" y="660" width="150" height="30" as="geometry" />
        </mxCell>
      </root>
    </mxGraphModel>
  </diagram>
  <diagram id="V3kCE6nlSNAWuhaMBT0J" name="Actividad 6">
    <mxGraphModel dx="1393" dy="758" grid="1" gridSize="10" guides="1" tooltips="1" connect="1" arrows="1" fold="1" page="1" pageScale="1" pageWidth="980" pageHeight="690" math="0" shadow="0">
      <root>
        <mxCell id="0" />
        <mxCell id="1" parent="0" />
        <mxCell id="p2ejoy1VLudl0Dwfl0z--1" value="&lt;p style=&quot;line-height: 115%;&quot;&gt;&lt;font style=&quot;font-size: 13px;&quot;&gt;&lt;/font&gt;&lt;/p&gt;&lt;p style=&quot;background-color: initial; margin-bottom: 0cm; break-before: auto; break-after: auto; line-height: 160%; display: inline !important;&quot;&gt;&lt;font style=&quot;font-size: 13px;&quot;&gt;&lt;b style=&quot;&quot;&gt;6. Relaciona con el tipo de jerarquía que corresponda:&lt;/b&gt;&lt;br&gt;&lt;/font&gt;&lt;/p&gt;&lt;font style=&quot;font-size: 13px;&quot;&gt;&lt;span style=&quot;background-color: initial;&quot;&gt;&amp;nbsp; a. Una misma entidad superclase no puede aparecer en dos entidades&amp;nbsp;&lt;/span&gt;&lt;span style=&quot;background-color: initial;&quot;&gt;subclase diferentes&lt;br&gt;&lt;/span&gt;&lt;span style=&quot;white-space: pre;&quot;&gt;&#x9;&lt;/span&gt;&lt;b style=&quot;&quot;&gt;Exclusiva&lt;/b&gt;&lt;br&gt;&lt;span style=&quot;background-color: initial;&quot;&gt;&amp;nbsp; &amp;nbsp;b. Una misma entidad superclase puede aparecer en dos (o, incluso, en&amp;nbsp;&lt;/span&gt;&lt;span style=&quot;background-color: initial;&quot;&gt;más de dos) entidades&amp;nbsp; &amp;nbsp; &amp;nbsp; &amp;nbsp; &amp;nbsp; &amp;nbsp; &amp;nbsp; &amp;nbsp; &amp;nbsp; &amp;nbsp;subclase diferentes&lt;br&gt;&lt;/span&gt;&lt;span style=&quot;white-space: pre;&quot;&gt;&#x9;&lt;/span&gt;&lt;b style=&quot;&quot;&gt;Inclusiva&lt;/b&gt;&lt;br&gt;&lt;span style=&quot;background-color: initial;&quot;&gt;&amp;nbsp; &amp;nbsp;c. Toda instancia de la entidad superclase tiene que pertenecer, como&lt;/span&gt;&lt;span style=&quot;background-color: initial;&quot;&gt;&amp;nbsp;mínimo, a una de sus entidades&amp;nbsp; &lt;span style=&quot;white-space: pre;&quot;&gt;&#x9;&lt;/span&gt;subclase&lt;br&gt;&lt;/span&gt;&lt;span style=&quot;white-space: pre;&quot;&gt;&#x9;&lt;/span&gt;&lt;b style=&quot;&quot;&gt;Total&lt;/b&gt;&lt;br&gt;&lt;span style=&quot;background-color: initial;&quot;&gt;&amp;nbsp; &amp;nbsp;d. Algunas instancias de la entidad&amp;nbsp;&lt;/span&gt;&lt;span style=&quot;background-color: initial;&quot;&gt;superclase podrán no pertenecer a ninguno de sus entidades&amp;nbsp;&lt;/span&gt;&lt;/font&gt;&lt;span style=&quot;background-color: initial; font-size: 13px;&quot;&gt;&lt;font style=&quot;font-size: 13px;&quot;&gt;subclase&lt;br&gt;&lt;span style=&quot;white-space: pre;&quot;&gt;&#x9;&lt;/span&gt;&lt;b style=&quot;&quot;&gt;Parcial&lt;/b&gt;&lt;/font&gt;&lt;br&gt;&lt;/span&gt;&lt;p&gt;&lt;/p&gt;" style="text;whiteSpace=wrap;html=1;fontSize=11;fontFamily=Helvetica;fontColor=default;strokeColor=default;fillColor=default;spacingLeft=6;spacingTop=7;" vertex="1" parent="1">
          <mxGeometry x="170" y="220" width="625" height="250" as="geometry" />
        </mxCell>
        <mxCell id="75_ec63EZ73GYhr_QUKL-1" value="&lt;b&gt;&lt;font style=&quot;font-size: 14px;&quot; face=&quot;Courier New&quot;&gt;Marcos Zahonero&lt;/font&gt;&lt;/b&gt;" style="text;html=1;align=center;verticalAlign=middle;resizable=0;points=[];autosize=1;strokeColor=default;fillColor=default;fontSize=11;fontFamily=Helvetica;fontColor=default;" vertex="1" parent="1">
          <mxGeometry x="415" y="660" width="150" height="30" as="geometry" />
        </mxCell>
      </root>
    </mxGraphModel>
  </diagram>
</mxfile>
